<?xml version="1.0" encoding="UTF-8"?>
<svg version="1.1" xmlns="http://www.w3.org/2000/svg" width="800" height="800">
<path d="M0 0 C2.43576875 1.01785028 4.81296698 2.11389064 7.19042969 3.26123047 C8.48194946 3.86414917 8.48194946 3.86414917 9.79956055 4.47924805 C12.39769854 5.70025059 14.98318404 6.94451121 17.56542969 8.19873047 C18.70214111 8.74835449 18.70214111 8.74835449 19.86181641 9.30908203 C24.4622774 11.54456837 29.02207105 13.84940831 33.56542969 16.19873047 C34.55929687 16.71048828 35.55316406 17.22224609 36.57714844 17.74951172 C46.73305403 23.12446318 57.29269186 29.08641777 64.56542969 38.19873047 C64.56542969 38.85873047 64.56542969 39.51873047 64.56542969 40.19873047 C65.11328125 40.43076172 65.66113281 40.66279297 66.22558594 40.90185547 C72.20090135 44.21371643 78.01005294 50.02451293 82.25292969 55.38623047 C84.20262936 57.75748683 85.97794632 59.44671394 88.31542969 61.38623047 C93.43189353 65.75112335 97.43701252 70.91645441 101.56542969 76.19873047 C102.16226563 76.95283203 102.75910156 77.70693359 103.37402344 78.48388672 C108.21185646 84.64011304 112.8832145 90.92392508 117.56542969 97.19873047 C115.61811102 86.61659088 112.94939419 77.98197401 107.17480469 68.85888672 C105.56542969 66.19873047 105.56542969 66.19873047 105.56542969 64.19873047 C104.99308594 63.94349609 104.42074219 63.68826172 103.83105469 63.42529297 C101.32369236 62.06785888 99.43238409 60.47898943 97.31542969 58.57373047 C96.60902344 57.94208984 95.90261719 57.31044922 95.17480469 56.65966797 C94.64371094 56.17755859 94.11261719 55.69544922 93.56542969 55.19873047 C94.56542969 52.19873047 94.56542969 52.19873047 96.36230469 50.99560547 C98.82148053 50.10611633 100.24103873 50.0968353 102.81542969 50.44873047 C103.52183594 50.53638672 104.22824219 50.62404297 104.95605469 50.71435547 C111.7890587 51.98275741 117.32088656 53.78487158 123.37792969 57.13623047 C124.03212891 57.48363281 124.68632813 57.83103516 125.36035156 58.18896484 C128.53402171 59.91033241 131.10082499 61.58050542 133.56542969 64.19873047 C135.07204382 65.30833142 136.57962145 66.41672315 138.09741211 67.51098633 C144.68367553 72.30397411 149.35103894 77.13152138 153.56542969 84.19873047 C154.22542969 85.18873047 154.88542969 86.17873047 155.56542969 87.19873047 C164.34601769 84.19091202 171.30870323 79.71515668 178.44042969 73.82373047 C180.6238128 72.15408456 181.88794496 71.61708746 184.56542969 71.19873047 C186.23276101 70.86873781 187.8995048 70.53575146 189.56542969 70.19873047 C189.28175101 72.42892774 188.9881558 74.65786501 188.69042969 76.88623047 C188.52800781 78.12759766 188.36558594 79.36896484 188.19824219 80.64794922 C187.64064599 83.77668342 186.87534846 86.32021149 185.56542969 89.19873047 C186.62761719 88.64443359 187.68980469 88.09013672 188.78417969 87.51904297 C190.21104039 86.78683813 191.63813641 86.05509174 193.06542969 85.32373047 C193.76152344 84.95892578 194.45761719 84.59412109 195.17480469 84.21826172 C201.26735667 81.11557321 207.68133125 78.04744971 214.56542969 80.19873047 C214.06020747 84.57732302 211.38715747 87.01524271 208.56542969 90.19873047 C209.53480469 90.11623047 210.50417969 90.03373047 211.50292969 89.94873047 C216.37671681 89.90878139 220.3005932 92.03246432 224.56542969 94.19873047 C224.46386719 95.93701172 224.46386719 95.93701172 223.56542969 98.19873047 C221.450088 99.76921142 219.45842634 101.08359877 217.19042969 102.38623047 C216.60003906 102.74136719 216.00964844 103.09650391 215.40136719 103.46240234 C212.81652052 104.99642734 210.42488353 106.24557919 207.56542969 107.19873047 C207.56542969 107.85873047 207.56542969 108.51873047 207.56542969 109.19873047 C206.67855469 109.87935547 205.79167969 110.55998047 204.87792969 111.26123047 C201.34233645 114.05116542 199.5751385 117.34156503 197.54589844 121.30810547 C196.56542969 123.19873047 196.56542969 123.19873047 195.56542969 124.19873047 C196.72300781 124.71822266 197.88058594 125.23771484 199.07324219 125.77294922 C200.61252698 126.47689043 202.15157713 127.18134488 203.69042969 127.88623047 C204.45097656 128.22589844 205.21152344 128.56556641 205.99511719 128.91552734 C210.8690314 131.16341019 214.53257338 133.6714509 218.56542969 137.19873047 C220.48131322 138.28920897 220.48131322 138.28920897 222.31542969 139.01123047 C231.19771631 143.26662254 237.834438 150.26796145 244.24121094 157.58544922 C247.16532169 160.87323089 250.2839881 163.93621313 253.41699219 167.02294922 C262.48344837 176.54871926 270.83001245 189.52309661 274.56542969 202.19873047 C274.7579834 202.80652344 274.95053711 203.41431641 275.14892578 204.04052734 C279.18958031 217.03161285 280.58287137 230.07597468 281.6652832 243.5703125 C281.72009354 244.25070084 281.77490387 244.93108917 281.83137512 245.63209534 C281.97873848 247.50028895 282.11756302 249.36915042 282.25585938 251.23803711 C282.46334598 254.25224037 282.46334598 254.25224037 283.56542969 257.19873047 C285.07355929 271.79593556 284.67069388 286.54757495 284.56542969 301.19873047 C285.33653076 301.49134766 286.10763184 301.78396484 286.90209961 302.08544922 C296.04902249 305.90889485 302.91284357 314.34448061 308.56542969 322.19873047 C309.14421875 322.98634766 309.72300781 323.77396484 310.31933594 324.58544922 C313.45581961 329.03698869 315.43060084 332.86503489 316.56542969 338.19873047 C317.22542969 338.19873047 317.88542969 338.19873047 318.56542969 338.19873047 C319.83882451 340.7182979 321.1091961 343.23931695 322.37792969 345.76123047 C322.91256836 346.81793945 322.91256836 346.81793945 323.45800781 347.89599609 C334.60479185 370.0873001 334.16481057 391.95176916 333.60968018 416.17755127 C333.57044924 417.96945793 333.54154675 419.76158412 333.51416016 421.55371094 C333.30620102 434.51503801 331.53802943 446.93460553 329.04882812 459.6484375 C328.62604806 461.87892263 328.25579453 464.10664756 327.91699219 466.35107422 C326.32627615 476.02965168 322.79277197 484.26071046 318.58984375 493.03808594 C317.64121004 495.03889822 316.7320249 497.05157897 315.83886719 499.07763672 C303.44109196 527.00842556 303.44109196 527.00842556 290.56542969 534.19873047 C289.89511719 534.72466797 289.22480469 535.25060547 288.53417969 535.79248047 C275.4268013 546.0767312 257.25805935 544.73964041 241.56542969 544.19873047 C241.45005859 544.91101807 241.3346875 545.62330566 241.21582031 546.35717773 C237.20767006 563.86876213 224.93887385 582.74731604 212.76074219 595.71044922 C207.47227432 601.70467348 203.36672222 608.53254686 199.75292969 615.63623047 C194.3675402 625.76484918 185.98363702 633.96878368 177.85058594 641.92138672 C174.56846686 645.19228488 171.54939022 648.65673056 168.56542969 652.19873047 C167.78167969 653.12685547 166.99792969 654.05498047 166.19042969 655.01123047 C164.60950931 656.90213523 163.08362605 658.82035163 161.57324219 660.76904297 C157.38958019 666.08185942 153.35172826 670.41920259 147.88574219 674.39013672 C144.27430521 677.205112 141.18432797 680.5003767 137.99121094 683.77294922 C135.2384124 686.52574776 132.35197404 689.04986716 129.35449219 691.53076172 C127.42939599 693.23237637 127.42939599 693.23237637 125.65527344 695.69873047 C123.43886539 698.35013449 121.4856796 699.67740909 118.50292969 701.38623047 C112.1408809 705.27980433 106.96835901 710.09366555 101.56542969 715.19873047 C72.75461888 741.19873047 72.75461888 741.19873047 66.56542969 741.19873047 C65.90542969 742.84873047 65.24542969 744.49873047 64.56542969 746.19873047 C54.41276818 746.22185439 44.26011289 746.23964581 34.10743046 746.25054264 C29.39363236 746.25577136 24.67985222 746.2628688 19.96606445 746.27416992 C15.42087565 746.2849992 10.87570417 746.29100739 6.33050346 746.29360771 C4.59248011 746.29546189 2.85445775 746.29908236 1.11644173 746.30446053 C-1.30935626 746.3116715 -3.73508177 746.31272139 -6.16088867 746.31225586 C-6.886651 746.31585114 -7.61241333 746.31944641 -8.36016846 746.32315063 C-13.32051815 746.31278263 -13.32051815 746.31278263 -14.43457031 745.19873047 C-17.45568017 744.88895169 -20.47027924 744.62699794 -23.49707031 744.38623047 C-32.57528222 743.59712676 -41.48821684 742.30353313 -50.46118164 740.73071289 C-55.36629139 739.87308195 -60.26251073 739.0616242 -65.20019531 738.41357422 C-66.58658203 738.23072876 -66.58658203 738.23072876 -68.00097656 738.04418945 C-69.7106609 737.82410181 -71.42154324 737.61300007 -73.13378906 737.41381836 C-83.90046235 736.01605135 -93.58160793 731.91442004 -103.24707031 727.13623047 C-105.24955495 726.16202641 -107.25216286 725.1880757 -109.25488281 724.21435547 C-110.27098633 723.71742188 -111.28708984 723.22048828 -112.33398438 722.70849609 C-116.42632916 720.71581419 -120.53528235 718.75893569 -124.64550781 716.8034668 C-128.4422767 714.99570405 -132.2331757 713.17585009 -136.0234375 711.35449219 C-138.07675179 710.37024858 -140.13378042 709.39449208 -142.19238281 708.42138672 C-151.32728058 704.0174782 -159.0783832 699.20534657 -165.52441406 691.29638672 C-167.79391166 688.80411635 -170.28062259 686.83744807 -172.93457031 684.76123047 C-178.01998927 680.68597637 -181.74827768 676.54544371 -185.43457031 671.19873047 C-185.82 670.65974121 -186.20542969 670.12075195 -186.60253906 669.56542969 C-202.54686756 647.24950222 -206.86886393 623.13199968 -207.66845703 596.15551758 C-208.60386233 567.66632565 -214.36502591 519.73337307 -234.74707031 497.69873047 C-235.30394531 497.20373047 -235.86082031 496.70873047 -236.43457031 496.19873047 C-236.43457031 495.53873047 -236.43457031 494.87873047 -236.43457031 494.19873047 C-237.75457031 494.19873047 -239.07457031 494.19873047 -240.43457031 494.19873047 C-241.09457031 496.17873047 -241.75457031 498.15873047 -242.43457031 500.19873047 C-243.09457031 500.19873047 -243.75457031 500.19873047 -244.43457031 500.19873047 C-244.53382813 500.91287109 -244.63308594 501.62701172 -244.73535156 502.36279297 C-245.53387596 505.60150088 -246.83716135 507.76043025 -248.62207031 510.57373047 C-251.62212355 515.57179487 -253.88641967 520.54350658 -255.94848633 525.98828125 C-258.52794761 532.6832591 -261.6576106 539.09628608 -264.83227539 545.52661133 C-270.24777636 556.62630089 -273.61686539 568.06719122 -276.79003906 579.97021484 C-279.29082372 589.15296031 -282.65547494 597.71611764 -286.68457031 606.32373047 C-287.46574219 607.99822266 -287.46574219 607.99822266 -288.26269531 609.70654297 C-288.64941406 610.52896484 -289.03613281 611.35138672 -289.43457031 612.19873047 C-293.43457031 612.19873047 -293.43457031 612.19873047 -295.94238281 610.25732422 C-299.02056637 606.47955348 -300.60003786 602.78895474 -302.30957031 598.26123047 C-302.64690186 597.38732666 -302.9842334 596.51342285 -303.33178711 595.61303711 C-309.49060117 579.39161079 -314.51544659 563.48101603 -316.43457031 546.19873047 C-316.53608398 545.34778809 -316.63759766 544.4968457 -316.7421875 543.62011719 C-317.88859806 533.71288777 -318.52732042 523.8664422 -318.37988281 513.89404297 C-318.36914734 513.16689087 -318.35841187 512.43973877 -318.34735107 511.69055176 C-318.33617249 510.95171753 -318.3249939 510.2128833 -318.31347656 509.45166016 C-317.93236248 484.12254585 -317.93271515 447.20244079 -329.43457031 424.19873047 C-330.05203125 424.77880859 -330.66949219 425.35888672 -331.30566406 425.95654297 C-345.66229308 439.19873047 -345.66229308 439.19873047 -351.43457031 439.19873047 C-351.43457031 439.85873047 -351.43457031 440.51873047 -351.43457031 441.19873047 C-365.6853982 448.70888598 -379.70221965 450.67135965 -395.61669922 450.78369141 C-401.34321292 450.86572009 -406.09445609 451.37644825 -411.44213867 453.49072266 C-414.71670668 454.65433584 -417.98562678 454.88519015 -421.43457031 455.19873047 C-423.02348068 447.9279367 -421.87133659 443.69742957 -418.37207031 437.26123047 C-411.35720833 423.35395366 -407.35904132 409.72334384 -404.46655273 394.44042969 C-398.29780273 362.20404863 -389.51888266 332.72109833 -371.59228516 305.00146484 C-370.52808861 303.34435237 -369.48978992 301.67068328 -368.45410156 299.99560547 C-367.87015625 299.05201172 -367.28621094 298.10841797 -366.68457031 297.13623047 C-366.19472656 296.34087891 -365.70488281 295.54552734 -365.20019531 294.72607422 C-362.83945656 291.34687516 -360.16003897 288.28681751 -357.43457031 285.19873047 C-359.25214844 284.90482422 -359.25214844 284.90482422 -361.10644531 284.60498047 C-384.13081076 280.60750146 -403.70624828 271.00466125 -422.87597656 257.92138672 C-427.21230617 255.00181213 -431.72001017 252.46171934 -436.43457031 250.19873047 C-436.43457031 249.53873047 -436.43457031 248.87873047 -436.43457031 248.19873047 C-437.09457031 247.86873047 -437.75457031 247.53873047 -438.43457031 247.19873047 C-439.58561198 245.77685547 -440.73665365 244.35498047 -441.88769531 242.93310547 C-443.57338064 241.04309465 -445.37565547 239.45781355 -447.30957031 237.82373047 C-451.45880278 234.2750448 -454.97637173 230.41466954 -458.43457031 226.19873047 C-459.01851563 225.51423828 -459.60246094 224.82974609 -460.20410156 224.12451172 C-462.88943888 220.82286747 -464.34710083 219.0151123 -464.80957031 214.69873047 C-464.68582031 213.87373047 -464.56207031 213.04873047 -464.43457031 212.19873047 C-459.80997787 211.02172999 -455.35590569 211.08464634 -450.62207031 211.13623047 C-449.43967773 211.14299805 -449.43967773 211.14299805 -448.23339844 211.14990234 C-446.30042271 211.16161735 -444.36748639 211.17955049 -442.43457031 211.19873047 C-442.43457031 210.53873047 -442.43457031 209.87873047 -442.43457031 209.19873047 C-441.59152344 208.95703125 -441.59152344 208.95703125 -440.73144531 208.71044922 C-426.54083921 204.1180905 -413.73338411 195.64107683 -401.05957031 187.94873047 C-391.7794867 182.32610726 -382.37376144 177.38949822 -372.45800781 172.97607422 C-353.71764427 164.62550698 -335.91237584 154.92810195 -318.43457031 144.19873047 C-313.17160531 140.99457554 -307.94708881 137.95498972 -302.43457031 135.19873047 C-300.42802651 133.87526541 -298.42828856 132.54143868 -296.43457031 131.19873047 C-291.762653 128.4395909 -287.04718775 125.97013166 -282.12207031 123.69873047 C-281.46907959 123.39394775 -280.81608887 123.08916504 -280.14331055 122.77514648 C-276.47322266 121.07865186 -272.79117874 119.53993312 -268.99707031 118.13623047 C-265.87051827 116.92430964 -263.47955462 115.61329932 -260.87207031 113.51123047 C-237.53835704 94.96632757 -205.23723029 88.98365229 -176.24707031 89.07373047 C-174.40918945 89.06792969 -174.40918945 89.06792969 -172.53417969 89.06201172 C-164.1186027 89.07088423 -155.8189457 89.49164358 -147.43457031 90.19873047 C-152.78320988 85.78009805 -157.96342174 82.17499481 -164.27050781 79.24169922 C-166.43457031 78.19873047 -166.43457031 78.19873047 -169.43457031 76.19873047 C-171.75520128 75.54747497 -174.09125691 74.9504504 -176.43457031 74.38623047 C-183.17625175 72.66878934 -189.20686668 70.32901422 -195.43457031 67.19873047 C-196.77522323 66.5453743 -198.11640848 65.8931098 -199.45800781 65.24169922 C-200.88823652 64.54097987 -202.31792557 63.83915796 -203.74707031 63.13623047 C-204.41730225 62.8078418 -205.08753418 62.47945313 -205.77807617 62.14111328 C-208.90530276 60.57925532 -211.75818458 58.97998757 -214.66503906 57.01513672 C-219.94559609 53.55186589 -224.49834901 54.19770263 -230.65722656 54.45654297 C-233.43457031 54.19873047 -233.43457031 54.19873047 -235.28222656 52.87841797 C-237.0718888 50.26975776 -236.81857083 48.27073462 -236.43457031 45.19873047 C-235.05957031 43.69873047 -235.05957031 43.69873047 -233.43457031 42.19873047 C-233.16644531 41.22935547 -232.89832031 40.25998047 -232.62207031 39.26123047 C-231.04151629 35.18506483 -229.23860506 34.27646713 -225.43457031 32.19873047 C-222.07003784 31.69752502 -222.07003784 31.69752502 -218.34814453 31.69702148 C-217.32166306 31.68891701 -217.32166306 31.68891701 -216.27444458 31.6806488 C-214.01227258 31.66816092 -211.75137822 31.68470326 -209.48925781 31.70263672 C-207.88013646 31.7024812 -206.27101475 31.70098359 -204.66189575 31.69822693 C-201.27068702 31.69684111 -197.87989997 31.70938994 -194.48876953 31.73217773 C-190.26028078 31.75988827 -186.03252136 31.75773768 -181.80398369 31.74546719 C-152.61151353 31.6781964 -123.52000497 33.21521536 -94.64208984 37.70800781 C-92.2458219 38.07461601 -89.84940891 38.42885189 -87.44970703 38.77148438 C-50.91744258 43.99217768 -12.9345977 50.66442369 21.56542969 64.19873047 C19.12999143 54.89787573 13.45196176 49.37805367 6.97509766 42.69580078 C4.51317255 40.0812312 2.36872645 37.25167172 0.22167969 34.37841797 C-0.98647382 32.78844236 -2.24380995 31.23549374 -3.52832031 29.70654297 C-11.19565654 20.56685594 -14.43457031 11.24601348 -14.43457031 -0.80126953 C-10.15147485 -2.94281726 -4.38448832 -1.44302955 0 0 Z M59.56542969 195.19873047 C58.42074219 196.77654297 58.42074219 196.77654297 57.25292969 198.38623047 C54.29546698 202.32951408 51.180006 206.11983618 48.00292969 209.88623047 C47.54426514 210.43239014 47.08560059 210.9785498 46.61303711 211.54125977 C42.74866534 216.09315356 38.70578273 220.3604715 34.06542969 224.13623047 C31.78685754 226.05709129 30.05493433 227.81394283 28.12792969 230.13623047 C25.46522266 233.31849009 22.62068913 235.86514424 19.46777344 238.54248047 C17.41060687 240.28118541 17.41060687 240.28118541 15.12792969 242.76123047 C11.60434573 246.11293229 7.6495429 248.58088085 3.56542969 251.19873047 C-1.29979314 254.37584217 -6.03995198 257.64266972 -10.68457031 261.13623047 C-14.69658644 264.10016373 -18.74482237 266.49044195 -23.18457031 268.76123047 C-27.93354585 271.21740287 -31.47892428 273.67189408 -34.96972656 277.71826172 C-36.63750761 279.40383243 -38.27695401 280.24752328 -40.43457031 281.19873047 C-40.43457031 281.85873047 -40.43457031 282.51873047 -40.43457031 283.19873047 C-41.1396875 283.42173828 -41.84480469 283.64474609 -42.57128906 283.87451172 C-46.05456525 285.48546755 -48.51747074 287.75758024 -51.24707031 290.38623047 C-52.30480728 291.38453487 -53.36340254 292.38193067 -54.42285156 293.37841797 C-54.93541504 293.8627832 -55.44797852 294.34714844 -55.97607422 294.84619141 C-57.90608685 296.6359922 -59.91619505 298.32230858 -61.93457031 300.01123047 C-65.89409138 303.4460945 -68.48755237 307.21450241 -70.74707031 311.94873047 C-73.13188752 315.12848675 -75.64351003 315.41190664 -79.43457031 316.19873047 C-77.76435913 310.25176641 -75.82333368 304.54105377 -73.46972656 298.83154297 C-72.34972466 295.98293436 -71.38345332 293.10863836 -70.43457031 290.19873047 C-69.26496724 286.62669947 -68.04397329 283.11535476 -66.62207031 279.63623047 C-64.59772768 274.66812266 -62.68956068 269.66036775 -60.80957031 264.63623047 C-60.35747192 263.44888306 -60.35747192 263.44888306 -59.89624023 262.23754883 C-58.17483994 257.60795624 -56.91268552 253.07548914 -55.91308594 248.24145508 C-55.25389622 245.42745491 -54.18159957 242.89228766 -52.99707031 240.26123047 C-51.41096453 236.60347632 -50.01267075 233.03676801 -48.93457031 229.19873047 C-46.54748799 220.79674015 -42.79910318 212.85104251 -39.13378906 204.94091797 C-38.31041474 203.20225946 -38.31041474 203.20225946 -38.43457031 201.19873047 C-37.77457031 201.19873047 -37.11457031 201.19873047 -36.43457031 201.19873047 C-36.43457031 200.53873047 -36.43457031 199.87873047 -36.43457031 199.19873047 C-41.45761694 199.97150687 -45.21242481 202.94263648 -48.68457031 206.51123047 C-51.0919566 208.86390343 -53.36192863 210.61659343 -56.12207031 212.51123047 C-63.81579523 217.79280686 -70.82982447 223.43892804 -77.31738281 230.14794922 C-79.67375347 232.43041157 -82.16834716 234.42154726 -84.74707031 236.44873047 C-93.15667923 243.2137418 -100.14001694 251.26139179 -106.62988281 259.86279297 C-108.79845899 262.66973789 -111.08154524 265.36548045 -113.37207031 268.07373047 C-120.43816756 276.48226646 -126.64921889 285.39386451 -132.67285156 294.56982422 C-134.43457031 297.19873047 -134.43457031 297.19873047 -136.16503906 299.35888672 C-137.71853887 301.23771016 -137.71853887 301.23771016 -137.43457031 304.19873047 C-138.42457031 304.69373047 -138.42457031 304.69373047 -139.43457031 305.19873047 C-139.14211426 305.71781982 -138.8496582 306.23690918 -138.54833984 306.77172852 C-137.21557951 309.14146203 -135.88754065 311.51380963 -134.55957031 313.88623047 C-134.099375 314.70285156 -133.63917969 315.51947266 -133.16503906 316.36083984 C-128.47463589 324.75598175 -128.47463589 324.75598175 -127.43457031 328.19873047 C-127.76457031 328.85873047 -128.09457031 329.51873047 -128.43457031 330.19873047 C-127.23250402 332.42774722 -125.99239003 334.51466948 -124.62207031 336.63623047 C-124.25275391 337.22210938 -123.8834375 337.80798828 -123.50292969 338.41162109 C-121.84713943 341.03056403 -120.15329216 343.6206477 -118.43457031 346.19873047 C-119.09457031 346.52873047 -119.75457031 346.85873047 -120.43457031 347.19873047 C-120.21800781 347.82521484 -120.00144531 348.45169922 -119.77832031 349.09716797 C-119.49988281 349.91443359 -119.22144531 350.73169922 -118.93457031 351.57373047 C-118.65613281 352.38583984 -118.37769531 353.19794922 -118.09082031 354.03466797 C-116.76806698 358.39660457 -118.63596817 361.15187565 -120.43457031 365.19873047 C-126.9491117 365.32401011 -126.9491117 365.32401011 -129.37207031 364.69873047 C-132.06142451 364.04676582 -134.65949913 364.18785567 -137.41113281 364.23388672 C-139.43457031 364.19873047 -139.43457031 364.19873047 -142.68457031 363.63623047 C-145.42012786 363.20102813 -146.84156652 363.39400515 -149.43457031 364.19873047 C-152.43457031 364.19873047 -152.43457031 364.19873047 -155.18457031 363.94873047 C-158.74181967 364.22236503 -160.68111093 365.38308547 -163.65722656 367.26513672 C-165.43457031 368.19873047 -165.43457031 368.19873047 -168.80957031 368.57373047 C-174.04126329 369.4757465 -177.61652719 371.51258338 -181.43457031 375.19873047 C-184.50216185 379.96981432 -186.7212256 384.95599691 -188.43847656 390.35498047 C-189.35167674 392.96207743 -190.22692905 394.57459134 -191.93457031 396.69873047 C-193.77299107 399.11770515 -194.56625385 400.59378109 -195.55957031 403.57373047 C-195.84832031 404.43998047 -196.13707031 405.30623047 -196.43457031 406.19873047 C-197.42457031 406.52873047 -198.41457031 406.85873047 -199.43457031 407.19873047 C-199.47582031 408.14748047 -199.51707031 409.09623047 -199.55957031 410.07373047 C-200.1879363 414.63862455 -202.52691524 417.95656907 -204.94628906 421.79638672 C-207.25464637 425.52247528 -208.99821392 429.25613647 -209.96191406 433.54638672 C-212.39064586 444.32487619 -218.40014974 453.77024477 -225.43457031 462.19873047 C-224.77457031 463.51873047 -224.11457031 464.83873047 -223.43457031 466.19873047 C-222.77457031 466.19873047 -222.11457031 466.19873047 -221.43457031 466.19873047 C-221.43457031 466.85873047 -221.43457031 467.51873047 -221.43457031 468.19873047 C-220.77457031 468.19873047 -220.11457031 468.19873047 -219.43457031 468.19873047 C-219.10457031 469.51873047 -218.77457031 470.83873047 -218.43457031 472.19873047 C-217.77457031 472.19873047 -217.11457031 472.19873047 -216.43457031 472.19873047 C-216.18707031 472.75560547 -215.93957031 473.31248047 -215.68457031 473.88623047 C-214.49346898 476.29920093 -214.49346898 476.29920093 -212.49707031 478.38623047 C-210.66302167 480.8872059 -209.95662434 482.29159227 -209.07128906 485.15185547 C-207.93339423 488.70273042 -206.71678113 492.2068776 -205.41894531 495.70263672 C-193.14560016 528.88317966 -184.68911015 563.02265632 -181.83691406 598.36669922 C-180.67372242 612.31336698 -179.26734133 623.89974264 -172.43457031 636.19873047 C-171.82619122 637.59273296 -171.22121212 638.98823292 -170.62207031 640.38623047 C-164.79900998 651.49181389 -156.67655233 659.17256866 -146.43457031 666.19873047 C-145.64308594 666.82779297 -144.85160156 667.45685547 -144.03613281 668.10498047 C-136.80034814 673.81867452 -128.78567032 677.83603926 -120.58178711 681.98706055 C-116.63068525 683.98824221 -112.82424954 685.93832871 -109.13769531 688.40185547 C-101.20027389 693.67817607 -90.96774288 695.69597981 -81.83300781 698.05029297 C-76.44999502 699.44067414 -71.09983863 700.94682672 -65.74707031 702.44873047 C-64.69374512 702.74344238 -63.64041992 703.0381543 -62.55517578 703.34179688 C-56.72627649 704.97729343 -50.90513334 706.63708903 -45.09082031 708.32373047 C-43.86580811 708.67790039 -42.6407959 709.03207031 -41.37866211 709.39697266 C-39.0351479 710.07568588 -36.69277019 710.75834158 -34.35180664 711.44580078 C-7.31232062 719.27012852 19.70749222 720.85759269 47.69042969 718.57373047 C48.80671753 718.50653809 48.80671753 718.50653809 49.94555664 718.43798828 C53.86193947 718.0287103 55.38068354 717.40048134 58.06933594 714.46435547 C58.45637695 713.92794434 58.84341797 713.3915332 59.2421875 712.83886719 C61.73238652 709.75230685 65.10363294 707.75454147 68.37792969 705.57373047 C69.05146484 705.10966797 69.725 704.64560547 70.41894531 704.16748047 C74.96778092 701.08558993 79.60677986 698.564223 84.56542969 696.19873047 C84.56542969 695.53873047 84.56542969 694.87873047 84.56542969 694.19873047 C85.26925781 693.97443359 85.97308594 693.75013672 86.69824219 693.51904297 C90.17879046 691.91628368 92.691738 689.67854155 95.44042969 687.07373047 C96.23694946 686.33123047 96.23694946 686.33123047 97.04956055 685.57373047 C100.49890194 682.3188592 103.67421013 678.92546564 106.72949219 675.29638672 C112.47197892 668.73529018 118.85184624 662.73479679 125.46777344 657.06982422 C131.9973061 651.24552972 138.12773796 644.91063462 143.79589844 638.24951172 C146.72470415 634.85520046 149.7947178 631.58751157 152.84277344 628.30029297 C154.7767437 626.39383225 154.7767437 626.39383225 154.56542969 624.19873047 C155.11585938 623.98087891 155.66628906 623.76302734 156.23339844 623.53857422 C159.31928421 621.76561137 161.51584894 619.37430797 163.87792969 616.76123047 C164.3592334 616.23134521 164.84053711 615.70145996 165.33642578 615.15551758 C170.75709966 609.04841845 176.35128321 602.47565583 177.56542969 594.19873047 C178.55542969 594.52873047 179.54542969 594.85873047 180.56542969 595.19873047 C181.36980469 594.27060547 182.17417969 593.34248047 183.00292969 592.38623047 C183.45539063 591.86416016 183.90785156 591.34208984 184.37402344 590.80419922 C185.774142 589.09160076 185.774142 589.09160076 186.56542969 586.19873047 C187.22542969 586.19873047 187.88542969 586.19873047 188.56542969 586.19873047 C190.2186588 583.95916415 191.74907129 581.72357282 193.25292969 579.38623047 C193.69556152 578.70786133 194.13819336 578.02949219 194.59423828 577.33056641 C195.49415501 575.94863279 196.39097045 574.56467464 197.28466797 573.17871094 C198.43735785 571.39672181 199.60491868 569.62596808 200.78027344 567.85888672 C201.410625 566.89853516 202.04097656 565.93818359 202.69042969 564.94873047 C203.24988281 564.09794922 203.80933594 563.24716797 204.38574219 562.37060547 C205.80408025 560.17129043 205.80408025 560.17129043 205.56542969 557.19873047 C206.22542969 557.19873047 206.88542969 557.19873047 207.56542969 557.19873047 C209.92736673 551.93596784 212.27156277 546.66600795 214.59521484 541.38623047 C215.36525382 539.65005805 216.15524437 537.92273702 216.95214844 536.19873047 C219.35650855 530.76434033 220.08575287 525.90172814 220.29199219 519.96044922 C220.58388078 517.01237447 221.25076585 514.84670585 222.56542969 512.19873047 C227.89814054 509.0324334 235.45894114 508.19873047 241.56542969 508.19873047 C242.22542969 510.83873047 242.88542969 513.47873047 243.56542969 516.19873047 C254.72926673 517.94308001 263.44521189 515.18157165 272.68652344 508.71435547 C276.15496679 505.9165259 278.38871268 503.64410583 279.56542969 499.19873047 C280.22542969 499.19873047 280.88542969 499.19873047 281.56542969 499.19873047 C283.60712454 496.29324165 284.56542969 494.79731001 284.56542969 491.19873047 C285.22542969 491.19873047 285.88542969 491.19873047 286.56542969 491.19873047 C286.87996094 490.49748047 287.19449219 489.79623047 287.51855469 489.07373047 C287.94652344 488.12498047 288.37449219 487.17623047 288.81542969 486.19873047 C289.23308594 485.27060547 289.65074219 484.34248047 290.08105469 483.38623047 C290.86684261 481.69885429 291.66357088 480.01479258 292.53979492 478.37255859 C295.24246947 473.27888531 296.81168145 468.30054117 298.12792969 462.69873047 C298.32322266 461.91498047 298.51851562 461.13123047 298.71972656 460.32373047 C299.3756474 457.62313131 299.97629081 454.91470053 300.56542969 452.19873047 C300.9625415 450.42175781 300.9625415 450.42175781 301.36767578 448.60888672 C303.53235525 438.43932697 304.12314491 428.57870615 304.06542969 418.19873047 C304.06466431 417.3973465 304.06389893 416.59596252 304.06311035 415.77029419 C304.01514281 401.77193979 302.41594333 388.70030441 298.56542969 375.19873047 C298.09943359 373.41982422 298.09943359 373.41982422 297.62402344 371.60498047 C295.49933682 364.36389605 291.93267817 357.91009259 288.27246094 351.35107422 C286.56542969 348.19873047 286.56542969 348.19873047 285.56542969 345.19873047 C284.90542969 345.19873047 284.24542969 345.19873047 283.56542969 345.19873047 C283.48679687 344.63154297 283.40816406 344.06435547 283.32714844 343.47998047 C281.15393591 336.97148757 273.38585061 331.52468528 267.56542969 328.19873047 C260.65281159 325.89452444 252.38253036 326.78462641 245.56542969 329.19873047 C243.09985375 330.97056061 243.09985375 330.97056061 240.56542969 333.19873047 C237.83320341 334.70602248 235.0703714 336.13373879 232.28417969 337.53857422 C224.66711455 342.18979934 222.49151635 348.38092529 219.50292969 356.44873047 C219.06319824 357.61299561 218.6234668 358.77726074 218.17041016 359.97680664 C215.30114327 367.74402275 213.01133534 375.42404748 211.37011719 383.53076172 C210.59637601 387.05766933 209.52708942 390.30190507 208.31542969 393.69873047 C206.51192881 399.33991343 206.33995323 404.53286685 206.49755859 410.38110352 C206.63989451 416.31198846 206.27482754 422.10881214 205.69042969 428.01123047 C205.57223877 429.29235718 205.57223877 429.29235718 205.45166016 430.59936523 C205.32621826 431.80290649 205.32621826 431.80290649 205.19824219 433.03076172 C205.08826904 434.09387573 205.08826904 434.09387573 204.97607422 435.1784668 C204.15248117 439.23032917 203.03951087 440.88267635 199.56542969 443.19873047 C199.56542969 444.18873047 199.56542969 445.17873047 199.56542969 446.19873047 C196.30372601 445.61484524 193.44333311 444.87180778 190.56542969 443.19873047 C188.19732496 438.67538435 188.30891544 433.20075836 188.56542969 428.19873047 C177.62021851 422.27198775 177.62021851 422.27198775 165.56542969 420.19873047 C163.28616832 415.67972924 163.29230323 411.41063644 163.33496094 406.46435547 C163.33510193 405.55836105 163.33524292 404.65236664 163.33538818 403.71891785 C163.33930625 400.62873947 163.3585549 397.53884804 163.37792969 394.44873047 C163.38420896 392.23396946 163.38996897 390.01920694 163.39526367 387.80444336 C163.45027537 371.88683933 163.64046146 355.97064208 163.83105469 340.05419922 C163.84293509 339.05167995 163.85481548 338.04916069 163.86705589 337.01626205 C163.98778212 326.83382259 164.11200597 316.6514788 164.25555992 306.4693327 C164.30923984 302.60687776 164.35895991 298.74437786 164.4079361 294.88186073 C164.43206234 293.05943545 164.45806655 291.23703399 164.48601532 289.41466331 C164.5243928 286.90449028 164.55649821 284.39431059 164.5871582 281.8840332 C164.60010327 281.14419315 164.61304834 280.4043531 164.62638569 279.64209366 C164.65868212 276.53315295 164.55741836 274.17469648 163.56542969 271.19873047 C163.39397998 269.43465754 163.22455838 267.67032873 163.07177734 265.90454102 C162.23630625 256.93637967 160.53891939 246.65610332 153.49511719 240.34326172 C151.65266165 239.02868499 151.65266165 239.02868499 149.56542969 239.19873047 C149.33597656 238.61736328 149.10652344 238.03599609 148.87011719 237.43701172 C142.41287335 226.35916525 123.40368657 219.49456563 112.23925781 213.75 C108.77954418 211.95769607 105.42610399 210.17296352 102.22558594 207.94482422 C98.19725227 205.30067569 94.2865071 205.19873047 89.56542969 205.19873047 C89.56542969 204.53873047 89.56542969 203.87873047 89.56542969 203.19873047 C87.58542969 203.19873047 85.60542969 203.19873047 83.56542969 203.19873047 C83.23542969 202.53873047 82.90542969 201.87873047 82.56542969 201.19873047 C80.02069267 200.43946161 77.52472407 199.78837339 74.94042969 199.19873047 C73.53130086 198.86656014 72.1224438 198.53323475 70.71386719 198.19873047 C70.02518555 198.03630859 69.33650391 197.87388672 68.62695312 197.70654297 C65.57992447 196.9559722 62.57594803 196.08371224 59.56542969 195.19873047 Z " fill="#000000" transform="translate(464.4345703125,30.80126953125)"/>
<path d="M0 0 C3.37019141 0.00319683 6.7395334 -0.02050258 10.10961914 -0.0456543 C12.26261283 -0.04792426 14.41560887 -0.0486322 16.56860352 -0.04760742 C17.57069351 -0.05681717 18.57278351 -0.06602692 19.60523987 -0.07551575 C24.65400822 -0.04189806 28.18881096 0.01094971 32.28344727 3.31567383 C32.84290039 3.7668457 33.40235352 4.21801758 33.97875977 4.68286133 C42.74058129 13.92347091 41.75253833 28.06670187 41.59594727 40.00317383 C41.58526654 41.51969387 41.57460588 43.03621405 41.56396484 44.55273438 C41.24964924 75.60849674 34.70460076 108.92846456 11.91625977 131.74926758 C11.04743164 132.59618164 10.17860352 133.4430957 9.28344727 134.31567383 C7.68633482 136.05310765 6.10231407 137.802693 4.53344727 139.56567383 C3.42936523 140.7819043 3.42936523 140.7819043 2.30297852 142.02270508 C1.0708394 143.42167154 -0.12918247 144.85094918 -1.26733398 146.32739258 C-7.69887035 154.52053839 -19.60537729 164.04520966 -30.1574707 165.69799805 C-59.13356331 167.65561732 -81.75369309 157.69838216 -103.67358398 138.76098633 C-105.78736553 136.6796137 -107.7773543 134.55948087 -109.71655273 132.31567383 C-110.29920898 131.65180664 -110.88186523 130.98793945 -111.48217773 130.30395508 C-112.63040504 128.98763143 -113.77117542 127.66476248 -114.90405273 126.33520508 C-116.90690873 124.10357458 -119.0439519 122.06934658 -121.21655273 120.00317383 C-130.9017785 110.33430824 -136.27785505 97.69129187 -141.71655273 85.31567383 C-142.02109375 84.65446533 -142.32563477 83.99325684 -142.6394043 83.31201172 C-144.94917775 77.89004352 -145.10992074 72.9705532 -144.96655273 67.12817383 C-144.95197021 66.20633301 -144.9373877 65.28449219 -144.92236328 64.3347168 C-144.87109784 61.66095476 -144.7948525 58.98875516 -144.71655273 56.31567383 C-144.70640137 55.61522949 -144.69625 54.91478516 -144.68579102 54.19311523 C-144.5925735 47.86577176 -144.41650959 42.56908156 -140.17358398 37.60473633 C-137.90876436 35.60100851 -135.49286483 34.47247054 -132.71655273 33.31567383 C-129.01605201 31.20487128 -125.48996925 28.85119147 -121.94360352 26.49536133 C-105.32539564 15.51902191 -89.84231044 9.78911296 -70.27490234 6.58081055 C-67.91725715 6.19284669 -65.56206124 5.79197064 -63.20678711 5.38989258 C-55.14149496 4.03740627 -47.2012013 3.02696405 -39.02612305 2.56884766 C-35.76410369 2.31931136 -32.63064687 1.82769091 -29.40795898 1.27270508 C-19.65845391 -0.19128681 -9.83912519 -0.01958107 0 0 Z M-34.60986328 27.81079102 C-36.79138745 28.33360849 -38.83939895 28.55145104 -41.07592773 28.71020508 C-55.11995894 29.79711853 -68.87028849 31.74018794 -82.71655273 34.31567383 C-83.9450293 34.52836914 -85.17350586 34.74106445 -86.43920898 34.96020508 C-94.59329308 36.62540012 -100.90983274 40.70277438 -107.71655273 45.31567383 C-108.70655273 45.97567383 -109.69655273 46.63567383 -110.71655273 47.31567383 C-110.71655273 47.97567383 -110.71655273 48.63567383 -110.71655273 49.31567383 C-111.47967773 49.60442383 -112.24280273 49.89317383 -113.02905273 50.19067383 C-115.86684581 51.27836396 -115.86684581 51.27836396 -118.71655273 53.31567383 C-119.43096773 55.66129843 -119.43096773 55.66129843 -119.71655273 58.31567383 C-119.86479492 59.12262695 -120.01303711 59.92958008 -120.16577148 60.76098633 C-121.21320659 72.54033852 -114.20643532 84.1062547 -106.84936523 92.92114258 C-104.25554868 95.83672824 -101.48609926 98.5673012 -98.71655273 101.31567383 C-96.80030088 103.51695956 -94.92196934 105.74338784 -93.05639648 107.98754883 C-91.79424363 109.55033853 -91.79424363 109.55033853 -89.71655273 109.31567383 C-89.71655273 109.97567383 -89.71655273 110.63567383 -89.71655273 111.31567383 C-74.65398982 126.11797648 -53.32466485 138.89123227 -31.95483398 139.77661133 C-25.45190698 138.43743962 -21.04077375 132.7663754 -16.77905273 128.06567383 C-16.16223633 127.3932666 -15.54541992 126.72085938 -14.90991211 126.02807617 C-13.1726139 124.12945741 -11.44425305 122.22302086 -9.71655273 120.31567383 C-8.97276367 119.5087207 -8.22897461 118.70176758 -7.46264648 117.87036133 C11.52967605 96.88108318 16.45537822 70.21719242 16.47094727 42.81567383 C16.48319336 41.65036133 16.49543945 40.48504883 16.50805664 39.28442383 C16.50999023 38.17067383 16.51192383 37.05692383 16.51391602 35.90942383 C16.5180249 34.90588867 16.52213379 33.90235352 16.52636719 32.8684082 C16.46358652 30.07305092 16.46358652 30.07305092 14.28344727 27.31567383 C11.01712796 26.22690073 8.61089443 26.18637341 5.17407227 26.18286133 C3.95067139 26.18084717 2.72727051 26.17883301 1.46679688 26.17675781 C0.1687915 26.1813501 -1.12921387 26.18594238 -2.46655273 26.19067383 C-3.77938232 26.19333252 -5.09221191 26.19599121 -6.44482422 26.19873047 C-20.64205015 25.86668166 -20.64205015 25.86668166 -34.60986328 27.81079102 Z " fill="#000000" transform="translate(512.716552734375,558.684326171875)"/>
<path d="M0 0 C6.79521452 -0.05100661 13.59037906 -0.08586157 20.38574219 -0.10986328 C22.69402919 -0.11987684 25.00230364 -0.13349163 27.31054688 -0.15087891 C30.64195872 -0.17533227 33.9732018 -0.18652989 37.3046875 -0.1953125 C38.834991 -0.21079636 38.834991 -0.21079636 40.39620972 -0.22659302 C48.79840985 -0.22788783 57.83347111 0.22231407 65 5 C68.50294871 6.71567661 68.50294871 6.71567661 72 8 C72.66 7.67 73.32 7.34 74 7 C74.99 7.66 75.98 8.32 77 9 C77 9.33 77 9.66 77 10 C77.78375 10.12375 78.5675 10.2475 79.375 10.375 C82 11 82 11 84 13 C84.9590625 13.2165625 84.9590625 13.2165625 85.9375 13.4375 C88.41119844 14.11214503 89.41206623 15.01508279 91 17 C91 17.66 91 18.32 91 19 C92.485 19.495 92.485 19.495 94 20 C94 20.66 94 21.32 94 22 C94.99 22.33 95.98 22.66 97 23 C97 23.66 97 24.32 97 25 C97.99 25.33 98.98 25.66 100 26 C100 27.65 100 29.3 100 31 C100.99 31.33 101.98 31.66 103 32 C103 32.66 103 33.32 103 34 C103.99 34.33 104.98 34.66 106 35 C106 37.64 106 40.28 106 43 C106.66 43 107.32 43 108 43 C108.09796875 43.58265625 108.1959375 44.1653125 108.296875 44.765625 C109.39784814 50.80199497 111.05158325 56.45522965 113.09765625 62.23828125 C114.85739722 67.62415512 115.2724085 72.37022427 115 78 C113 81 113 81 110.9765625 81.46875 C108.5553185 81.500926 106.3786126 81.47231842 104 81 C101.6875 78.5625 101.6875 78.5625 100 76 C97.87053397 75.13034494 97.87053397 75.13034494 96 75 C96.04125 74.2575 96.0825 73.515 96.125 72.75 C95.99218043 69.82796944 95.65036819 68.39303388 94 66 C92.67155476 65.32364546 91.33696376 64.65935585 90 64 C88.04035734 62.71032064 86.08218705 61.41840291 84.125 60.125 C70.18807634 51.44703374 52.89792115 49.11593039 36.828125 52.8359375 C33.51331383 53.7985355 30.26678046 54.88799659 27 56 C25.36066914 56.34498975 23.71457931 56.65990755 22.0625 56.9375 C17.679514 57.76750067 13.43836452 58.97263737 9.1875 60.3125 C7.94355469 60.70050781 6.69960938 61.08851563 5.41796875 61.48828125 C0.20127282 63.79555134 -2.88481663 67.38238159 -5.8125 72.1875 C-6.23144531 72.86167969 -6.65039062 73.53585937 -7.08203125 74.23046875 C-8.15349625 75.96364415 -8.15349625 75.96364415 -8 78 C-10.43778244 79.8109241 -12.57154752 80.88217557 -15.5 81.6875 C-18 81 -18 81 -20.5 78.0625 C-26.86447848 66.48710477 -28.6920357 53.04929827 -30.8125 40.1875 C-30.92368164 39.52668427 -31.03486328 38.86586853 -31.14941406 38.18502808 C-32.5555058 29.72447442 -33.31543406 21.57680227 -33 13 C-32.34 12.67 -31.68 12.34 -31 12 C-30.34786708 9.97536745 -30.34786708 9.97536745 -30 8 C-28.02 7.67 -26.04 7.34 -24 7 C-24 6.34 -24 5.68 -24 5 C-19.545 4.505 -19.545 4.505 -15 4 C-15 3.34 -15 2.68 -15 2 C-10.05 1.67 -5.1 1.34 0 1 C0 0.67 0 0.34 0 0 Z " fill="#000000" transform="translate(490,295)"/>
<path d="M0 0 C1.71944301 1.71944301 1.29345984 3.90415223 1.375 6.25 C1.30655379 10.02431933 1.18229714 11.68749062 -0.75 15 C-4.73779368 17.45402688 -8.50285074 18.37623045 -13.0625 19.32421875 C-15.86839135 19.96972301 -18.3615795 20.86024115 -21 22 C-19.6696875 21.7525 -19.6696875 21.7525 -18.3125 21.5 C-12.61780496 20.69149391 -6.72823131 20.52732077 -1 21 C1.67471043 23.67471043 1.32943834 25.14805618 1.375 28.875 C1.40335938 29.92429687 1.43171875 30.97359375 1.4609375 32.0546875 C0.89437714 35.67491218 -0.15806958 36.76558369 -3 39 C-7.12036317 40.79146225 -10.52907017 41.21290142 -15 41 C-15 41.66 -15 42.32 -15 43 C-16.02738281 43.09796875 -17.05476562 43.1959375 -18.11328125 43.296875 C-25.82465804 44.1043783 -32.73212532 45.20332679 -39.9609375 48.1953125 C-42 49 -42 49 -44 49 C-44.33 49.99 -44.66 50.98 -45 52 C-46.78515625 53.17578125 -46.78515625 53.17578125 -49.0625 54.3125 C-52.29628272 56.00857561 -55.14482136 57.78754881 -58 60.0625 C-60.72529011 62.19416256 -63.22066894 63.60945294 -66.4375 64.875 C-71.92593976 67.14052177 -75.79190968 70.89875572 -80 75 C-80.9075 75.86625 -81.815 76.7325 -82.75 77.625 C-84.39441657 79.36077304 -85.96930131 81.16316157 -87.5 83 C-90 86 -90 86 -92.4375 88.3125 C-95.35131205 91.36844922 -97.45369579 94.62563461 -99.66796875 98.20703125 C-100.10753906 98.79871094 -100.54710937 99.39039063 -101 100 C-101.66 100 -102.32 100 -103 100 C-103.0721875 100.52335937 -103.144375 101.04671875 -103.21875 101.5859375 C-105.22683146 107.79090921 -110.76092435 115.20497046 -116.5234375 118.3984375 C-119.94816748 119.27453122 -122.16133344 119.29353329 -125.5 118.125 C-127.66713651 115.05488995 -128.41607767 111.75226411 -128 108 C-127.01414217 106.98605506 -126.0120614 105.98779134 -125 105 C-123.88694515 102.41442038 -123.88694515 102.41442038 -123 99.5625 C-121.77936462 95.82430414 -120.52374191 93.03279213 -118 90 C-121.72614153 91.11854586 -121.72614153 91.11854586 -124 94 C-125.64821244 95.03013277 -127.31503702 96.03114628 -129 97 C-129.33 97.33 -129.66 97.66 -130 98 C-136.24568966 98.5783046 -136.24568966 98.5783046 -138.875 96.5625 C-140.93728377 91.86507585 -141.62910069 86.88730207 -140 82 C-139.01 81.505 -139.01 81.505 -138 81 C-138.68707031 81.04640625 -139.37414062 81.0928125 -140.08203125 81.140625 C-140.98308594 81.17671875 -141.88414062 81.2128125 -142.8125 81.25 C-143.70582031 81.29640625 -144.59914063 81.3428125 -145.51953125 81.390625 C-148 81 -148 81 -149.76171875 79.359375 C-155.52624274 68.37586556 -150.19495923 53.20044198 -147 42 C-146.34823636 39.99509387 -145.68696388 37.99311943 -145 36 C-144.34 36 -143.68 36 -143 36 C-142.71125 35.071875 -142.4225 34.14375 -142.125 33.1875 C-141 30 -141 30 -139 27 C-135.875 25.8125 -135.875 25.8125 -133 25 C-133 24.34 -133 23.68 -133 23 C-127.25 21.875 -127.25 21.875 -125 23 C-124.896875 23.763125 -124.79375 24.52625 -124.6875 25.3125 C-124.23943814 28.21465437 -124.23943814 28.21465437 -121.5625 29.875 C-118.20951845 32.65552129 -117.80197462 34.77140655 -117 39 C-116.875 42.4375 -116.875 42.4375 -117 45 C-117.66 45 -118.32 45 -119 45 C-119.20625 45.886875 -119.4125 46.77375 -119.625 47.6875 C-121.07506536 51.18083927 -122.42734465 52.17853064 -125.34765625 54.40625 C-131.35343962 60.19906232 -134.04757856 69.10468172 -136 77 C-135.34 77 -134.68 77 -134 77 C-133.82597656 75.90558594 -133.82597656 75.90558594 -133.6484375 74.7890625 C-132.98896699 71.95254478 -132.05624382 69.89919365 -130.625 67.375 C-130.20476562 66.61960937 -129.78453125 65.86421875 -129.3515625 65.0859375 C-128.05471742 63.08444828 -126.71849525 61.63773046 -125 60 C-124.13560856 58.94580154 -123.28104203 57.88345462 -122.4375 56.8125 C-121.633125 55.884375 -120.82875 54.95625 -120 54 C-119.34 54 -118.68 54 -118 54 C-117.7215625 52.948125 -117.7215625 52.948125 -117.4375 51.875 C-115.47932486 47.95864972 -112.59323769 45.4661136 -109 43 C-108.34 43 -107.68 43 -107 43 C-106.67 42.01 -106.34 41.02 -106 40 C-103.56640625 38.39453125 -103.56640625 38.39453125 -100.5625 36.8125 C-99.57378906 36.28269531 -98.58507812 35.75289063 -97.56640625 35.20703125 C-95 34 -95 34 -93 34 C-93 33.34 -93 32.68 -93 32 C-90.71070947 30.82845707 -88.41881638 29.66261926 -86.125 28.5 C-85.47402344 28.16613281 -84.82304688 27.83226562 -84.15234375 27.48828125 C-79.2265625 25 -79.2265625 25 -77 25 C-77 24.34 -77 23.68 -77 23 C-74.87717331 21.99539469 -72.75166979 20.99644398 -70.625 20 C-69.44164062 19.443125 -68.25828125 18.88625 -67.0390625 18.3125 C-64 17 -64 17 -62 17 C-62 16.34 -62 15.68 -62 15 C-45.7598493 8.520241 -45.7598493 8.520241 -37.52734375 7.51953125 C-34.80025714 6.95894003 -32.48741343 5.90714639 -29.95629883 4.77319336 C-26.37732185 3.35866446 -22.63384629 2.65419699 -18.875 1.875 C-17.69744141 1.62169922 -17.69744141 1.62169922 -16.49609375 1.36328125 C-14.9906191 1.04086088 -13.4841464 0.72305387 -11.9765625 0.41064453 C-10.35394774 0.07353509 -8.73498643 -0.28111413 -7.1171875 -0.640625 C-4.502971 -1.08436655 -2.54008379 -0.70557883 0 0 Z " fill="#000000" transform="translate(600,402)"/>
<path d="M0 0 C6.79379708 0.79851803 13.62968986 0.86843916 20.46289062 1.03710938 C22.00686523 1.08834961 22.00686523 1.08834961 23.58203125 1.140625 C24.50927002 1.16568115 25.43650879 1.1907373 26.3918457 1.21655273 C29.03380192 1.53490089 30.57173368 2.297207 32.90625 3.51953125 C34.62795669 3.93313509 36.36501976 4.28559574 38.109375 4.58984375 C39.0890625 4.76386719 40.06875 4.93789063 41.078125 5.1171875 C42.09390625 5.29121094 43.1096875 5.46523438 44.15625 5.64453125 C45.1875 5.82628906 46.21875 6.00804687 47.28125 6.1953125 C49.82199567 6.64229553 52.36360822 7.08348659 54.90625 7.51953125 C54.90625 8.17953125 54.90625 8.83953125 54.90625 9.51953125 C59.52625 10.50953125 64.14625 11.49953125 68.90625 12.51953125 C68.90625 13.17953125 68.90625 13.83953125 68.90625 14.51953125 C69.89753906 14.61105469 70.88882813 14.70257813 71.91015625 14.796875 C76.2918788 15.42283536 79.90655566 17.1308211 83.84375 19.08203125 C84.52759766 19.41138672 85.21144531 19.74074219 85.91601562 20.08007812 C87.58356871 20.88470164 89.24551839 21.70092095 90.90625 22.51953125 C90.90625 23.17953125 90.90625 23.83953125 90.90625 24.51953125 C91.525 24.82890625 92.14375 25.13828125 92.78125 25.45703125 C94.15625 26.14453125 95.53125 26.83203125 96.90625 27.51953125 C96.90625 28.17953125 96.90625 28.83953125 96.90625 29.51953125 C98.22625 29.84953125 99.54625 30.17953125 100.90625 30.51953125 C102.44677497 41.24075235 102.44677497 41.24075235 99.90625 45.51953125 C98.91625 46.50953125 98.91625 46.50953125 97.90625 47.51953125 C101.22711771 50.2895395 101.22711771 50.2895395 104.90625 52.51953125 C106.01182621 57.00833691 106.41242961 61.16971897 104.78125 65.51953125 C102.51100173 67.9411294 101.15110809 68.7820635 97.90625 69.51953125 C92.10632192 69.51953125 89.14365096 67.50129137 84.81640625 64.0078125 C82.34820293 62.08473384 79.74638462 60.81611444 76.90625 59.51953125 C75.978125 59.02453125 75.05 58.52953125 74.09375 58.01953125 C67.17605495 54.76414534 59.9408992 52.9654394 52.5078125 51.265625 C49.90625 50.51953125 49.90625 50.51953125 46.90625 48.51953125 C44.46401992 47.95223042 42.05880428 47.45552725 39.59375 47.01953125 C34.86037523 46.15292333 30.45438787 45.07711271 25.90625 43.51953125 C10.27479238 39.73433523 -5.55041408 41.11059508 -21.09375 44.51953125 C-21.42375 44.84953125 -21.75375 45.17953125 -22.09375 45.51953125 C-24.4921875 45.79296875 -24.4921875 45.79296875 -27.46875 45.89453125 C-28.44585937 45.94351563 -29.42296875 45.9925 -30.4296875 46.04296875 C-33.09375 45.51953125 -33.09375 45.51953125 -34.93359375 43.453125 C-36.35765317 39.85222055 -36.38952455 37.06882351 -36.28125 33.20703125 C-36.25417969 31.95277344 -36.22710937 30.69851563 -36.19921875 29.40625 C-36.16441406 28.45363281 -36.12960937 27.50101562 -36.09375 26.51953125 C-33.12375 25.85953125 -30.15375 25.19953125 -27.09375 24.51953125 C-27.09375 23.85953125 -27.09375 23.19953125 -27.09375 22.51953125 C-25.11375 21.85953125 -23.13375 21.19953125 -21.09375 20.51953125 C-21.650625 20.67550781 -22.2075 20.83148438 -22.78125 20.9921875 C-28.31556087 22.40381071 -32.48519235 22.67992249 -38.09375 21.51953125 C-42.07443366 18.86574214 -43.04766255 16.1074896 -44.09375 11.51953125 C-44.05155493 9.02064527 -43.65649194 6.97513245 -43.09375 4.51953125 C-41.77375 4.51953125 -40.45375 4.51953125 -39.09375 4.51953125 C-38.43375 3.19953125 -37.77375 1.87953125 -37.09375 0.51953125 C-8.71775549 -1.06477153 -8.71775549 -1.06477153 0 0 Z " fill="#000000" transform="translate(295.09375,471.48046875)"/>
<path d="M0 0 C5.11592374 3.51719757 8.46227283 7.94431188 12 13 C12.68964844 12.50628906 13.37929688 12.01257813 14.08984375 11.50390625 C20.24341616 7.30867238 24.52178504 5.12259369 32 5 C33.58597218 13.06777153 33.58597218 13.06777153 31.625 16.1875 C27.78049954 18.84203603 23.93354784 21.47849497 20 24 C20.18175781 24.52062012 20.36351562 25.04124023 20.55078125 25.57763672 C22.64311576 31.69503269 24.38092296 37.86718864 26 44.125 C26.26055176 45.13038818 26.52110352 46.13577637 26.78955078 47.17163086 C32.23174299 68.43838385 32.23174299 68.43838385 32 77 C31.34 77 30.68 77 30 77 C30 77.99 30 78.98 30 80 C26.86501708 81.85776765 24.62528568 82.20140476 21 82 C17.84992967 76.59466193 16.7774349 71.09549345 15.5625 65 C13.73636495 56.19703895 11.66545914 47.59201075 9 39 C3.31668782 46.03896462 -1.14732881 55.17361661 -2.671875 64.10546875 C-3.14539028 66.83945578 -4.08794373 69.38543869 -5 72 C-5.34976758 73.32911682 -5.69096017 74.66082739 -6 76 C-6.66 76 -7.32 76 -8 76 C-8 76.99 -8 77.98 -8 79 C-10.95664519 80.4783226 -13.74229737 80.06032783 -17 80 C-18.84346316 77.30570769 -20.05387873 75.12546675 -19.89453125 71.796875 C-19.39447374 69.14699761 -18.74037669 66.59316014 -18 64 C-17.75121094 63.0925 -17.50242187 62.185 -17.24609375 61.25 C-14.73773501 52.97129132 -10.92322325 45.43407822 -6.92529297 37.79785156 C-6.040463 36.07861992 -5.20827177 34.33260127 -4.37890625 32.5859375 C-3 30 -3 30 -1 29 C-1 28.01 -1 27.02 -1 26 C-0.34 26 0.32 26 1 26 C0.505 23.525 0.505 23.525 0 21 C-0.99 20.67 -1.98 20.34 -3 20 C-3.33 19.01 -3.66 18.02 -4 17 C-5.11375 16.401875 -6.2275 15.80375 -7.375 15.1875 C-11.14314587 13.15192429 -12.71624741 11.19359181 -14 7 C-13.1875 4.125 -13.1875 4.125 -12 2 C-11.01 2 -10.02 2 -9 2 C-9 1.34 -9 0.68 -9 0 C-5.35845458 -1.21384847 -3.69332968 -1.01385521 0 0 Z " fill="#000000" transform="translate(710,416)"/>
<path d="M0 0 C0.46148437 0.39058594 0.92296875 0.78117187 1.3984375 1.18359375 C1.3984375 1.84359375 1.3984375 2.50359375 1.3984375 3.18359375 C2.27822266 3.59158203 2.27822266 3.59158203 3.17578125 4.0078125 C8.58340235 6.86843456 12.48980637 10.82558904 15.3984375 16.18359375 C16.0584375 16.51359375 16.7184375 16.84359375 17.3984375 17.18359375 C19.17796597 20.80736082 19.82824123 24.18314208 20.2109375 28.18359375 C20.32050781 29.19421875 20.43007813 30.20484375 20.54296875 31.24609375 C20.37192264 34.72249037 19.46640186 36.4197273 17.3984375 39.18359375 C14.44179231 40.66191635 11.65614013 40.24392158 8.3984375 40.18359375 C8.3984375 40.84359375 8.3984375 41.50359375 8.3984375 42.18359375 C6.1484375 42.24609375 6.1484375 42.24609375 3.3984375 41.18359375 C2.4921875 39.359375 2.4921875 39.359375 1.6484375 37.05859375 C-0.57464803 31.33163268 -4.46686877 28.3608628 -9.6015625 25.18359375 C-11.0865625 24.68859375 -11.0865625 24.68859375 -12.6015625 24.18359375 C-12.6015625 23.52359375 -12.6015625 22.86359375 -12.6015625 22.18359375 C-13.19324219 22.00183594 -13.78492188 21.82007813 -14.39453125 21.6328125 C-21.11658841 19.49447458 -21.11658841 19.49447458 -24.0390625 17.62109375 C-26.80436145 16.06982848 -28.48922427 15.95112078 -31.6015625 15.62109375 C-34.94086518 15.04208163 -36.21112875 14.65653747 -38.39453125 12.01171875 C-41.74823698 5.66128438 -41.74823698 5.66128438 -41.33984375 1.546875 C-40.6015625 -0.81640625 -40.6015625 -0.81640625 -38.6015625 -3.81640625 C-25.54928006 -10.21941273 -12.05585261 -7.64808041 0 0 Z " fill="#000000" transform="translate(388.6015625,456.81640625)"/>
<path d="M0 0 C0.66 0.33 1.32 0.66 2 1 C2 4.3 2 7.6 2 11 C1.34 11 0.68 11 0 11 C-0.19406478 9.35492782 -0.38007935 7.70890406 -0.5625 6.0625 C-0.66691406 5.14597656 -0.77132812 4.22945313 -0.87890625 3.28515625 C-0.91886719 2.53105469 -0.95882812 1.77695312 -1 1 C-0.67 0.67 -0.34 0.34 0 0 Z " fill="#000000" transform="translate(749,438)"/>
<path d="M0 0 C0.66 0 1.32 0 2 0 C0.75023244 3.65316671 0.32901247 4.78065836 -3 7 C-1.125 1.125 -1.125 1.125 0 0 Z " fill="#000000" transform="translate(670,541)"/>
<path d="M0 0 C0.66 0 1.32 0 2 0 C2 0.99 2 1.98 2 3 C1.34 3 0.68 3 0 3 C0 2.01 0 1.02 0 0 Z " fill="#000000" transform="translate(252,496)"/>
<path d="M0 0 C1.98 0 3.96 0 6 0 C6 0.33 6 0.66 6 1 C4.02 1 2.04 1 0 1 C0 0.67 0 0.34 0 0 Z " fill="#000000" transform="translate(5,240)"/>
<path d="M0 0 C0.99 0.33 1.98 0.66 3 1 C2.01 1 1.02 1 0 1 C0 0.67 0 0.34 0 0 Z " fill="#000000" transform="translate(33,284)"/>
<path d="M0 0 C0.99 0.33 1.98 0.66 3 1 C2.01 1 1.02 1 0 1 C0 0.67 0 0.34 0 0 Z " fill="#000000" transform="translate(23,276)"/>
<path d="M0 0 C0.66 0.66 1.32 1.32 2 2 C1.34 2 0.68 2 0 2 C0 1.34 0 0.68 0 0 Z " fill="#000000" transform="translate(38,287)"/>
<path d="" fill="#000000" transform="translate(0,0)"/>
<path d="M0 0 C2 1 2 1 2 1 Z " fill="#000000" transform="translate(253,500)"/>
<path d="M0 0 C2 1 2 1 2 1 Z " fill="#000000" transform="translate(36,286)"/>
<path d="" fill="#000000" transform="translate(0,0)"/>
<path d="" fill="#000000" transform="translate(0,0)"/>
<path d="" fill="#000000" transform="translate(0,0)"/>
<path d="" fill="#000000" transform="translate(0,0)"/>
<path d="" fill="#000000" transform="translate(0,0)"/>
<path d="" fill="#000000" transform="translate(0,0)"/>
<path d="" fill="#000000" transform="translate(0,0)"/>
<path d="" fill="#000000" transform="translate(0,0)"/>
<path d="" fill="#000000" transform="translate(0,0)"/>
<path d="" fill="#000000" transform="translate(0,0)"/>
<path d="" fill="#000000" transform="translate(0,0)"/>
<path d="" fill="#000000" transform="translate(0,0)"/>
<path d="" fill="#000000" transform="translate(0,0)"/>
<path d="" fill="#000000" transform="translate(0,0)"/>
<path d="" fill="#000000" transform="translate(0,0)"/>
<path d="" fill="#000000" transform="translate(0,0)"/>
<path d="" fill="#000000" transform="translate(0,0)"/>
</svg>
